<svg width="73" height="72" viewBox="0 0 73 72" fill="none" xmlns="http://www.w3.org/2000/svg">
<ellipse cx="36.2148" cy="36" rx="35.3808" ry="36" fill="#CBA560"/>
<g clip-path="url(#clip0_7_10631)">
<path fill-rule="evenodd" clip-rule="evenodd" d="M25.8547 28.9044C25.686 28.9044 25.536 28.7919 25.4985 28.6232L25.0674 27.0673C24.8799 26.3549 25.3111 25.6238 26.0047 25.4363L45.5009 20.2248C46.1945 20.0374 46.9256 20.4498 47.1131 21.1622L49.0627 28.3982C49.1939 28.8857 48.4628 29.0731 48.3316 28.6045L46.4007 21.3496C46.307 21.0497 46.007 20.8622 45.6883 20.9372L26.1922 26.1674C25.0111 26.4861 26.9795 28.9044 25.8547 28.9044Z" fill="#483C32"/>
<path fill-rule="evenodd" clip-rule="evenodd" d="M25.8545 28.904C25.4233 28.904 25.3296 28.2854 25.7608 28.1542L47.0566 22.3803C47.5253 22.2491 47.7315 22.9615 47.2441 23.0927L25.8545 28.904ZM39.4831 28.8853C39.0519 28.8853 38.9582 28.2479 39.3894 28.1354L47.9752 25.8296C48.4626 25.7172 48.65 26.4295 48.1626 26.5607L39.4831 28.8853Z" fill="#483C32"/>
<path fill-rule="evenodd" clip-rule="evenodd" d="M49.2878 49.1504H31.0664C30.579 49.1504 30.579 48.4005 31.0664 48.4005H49.2878C50.0377 48.4005 50.6563 47.7819 50.6563 47.0321V43.4328C50.6563 42.9453 51.4062 42.9453 51.4062 43.4328V47.0321C51.4062 48.1943 50.4501 49.1504 49.2878 49.1504ZM24.374 39.0836C24.1677 39.0836 23.999 38.9149 23.999 38.7087V30.2353C23.999 29.0731 24.9551 28.1357 26.1174 28.1357H49.2878C50.4501 28.1357 51.4062 29.0731 51.4062 30.2353V35.5405C51.4062 36.0467 50.6563 36.0467 50.6563 35.5405V30.2353C50.6563 29.4855 50.0377 28.8856 49.2878 28.8856H26.1174C25.3675 28.8856 24.7489 29.4855 24.7489 30.2353V38.7087C24.7489 38.9149 24.5802 39.0836 24.374 39.0836Z" fill="#483C32"/>
<path fill-rule="evenodd" clip-rule="evenodd" d="M52.6056 43.8081H45.1445C45.0321 43.8081 44.9008 43.7518 44.8446 43.6394L42.2764 39.6839C42.1826 39.5714 42.1826 39.4027 42.2764 39.2902L44.8446 35.3347C44.9008 35.241 45.0321 35.166 45.1445 35.166H52.6056C52.8118 35.166 52.9805 35.3347 52.9805 35.5409V43.4332C52.9805 43.6394 52.8118 43.8081 52.6056 43.8081ZM45.3508 43.0582H52.2307V35.9159H45.3508L43.0262 39.4964L45.3508 43.0582Z" fill="#483C32"/>
<path fill-rule="evenodd" clip-rule="evenodd" d="M46.9258 41.1087C45.9323 41.1087 45.1074 40.2838 45.1074 39.2715C45.1074 38.278 45.9323 37.4531 46.9258 37.4531C47.9381 37.4531 48.763 38.278 48.763 39.2715C48.763 40.2838 47.9381 41.1087 46.9258 41.1087ZM46.9258 38.203C45.5198 38.203 45.5198 40.3588 46.9258 40.3588C48.3505 40.3588 48.3505 38.203 46.9258 38.203Z" fill="#483C32"/>
<path fill-rule="evenodd" clip-rule="evenodd" d="M52.6061 35.9151C52.4186 35.9151 52.2312 35.7464 52.2312 35.5402C52.2312 34.8466 51.6875 34.2655 50.9939 34.2092C50.5065 34.1717 50.5628 33.4219 51.0502 33.4594C52.8498 33.6093 53.4872 35.9151 52.6061 35.9151Z" fill="#483C32"/>
<path fill-rule="evenodd" clip-rule="evenodd" d="M27.2046 51.8129C27.1484 51.8129 27.0734 51.7941 27.0172 51.7754C24.3177 50.2757 20.7934 47.9324 21.2058 44.9517C21.2058 44.9142 21.2246 44.858 21.2621 44.8017C22.968 42.0648 21.2246 40.5651 21.1496 40.5088C20.9621 40.3588 20.9621 40.1151 21.1121 39.9464L23.0617 37.9968C23.1929 37.8843 23.3616 37.8468 23.5116 37.9218C25.8174 39.1028 28.5919 39.1028 30.8977 37.9218C31.0476 37.8656 31.2164 37.8843 31.3288 37.9968L33.2972 39.9464C33.4472 40.1151 33.4472 40.3588 33.2597 40.5088C33.1847 40.5651 31.4413 42.0648 33.1472 44.8017C33.1847 44.858 33.2035 44.9142 33.2035 44.9517C33.6159 47.9324 30.0728 50.2757 27.3921 51.7754C27.3359 51.7941 27.2609 51.8129 27.2046 51.8129ZM21.9369 45.1392C21.637 47.8011 25.6112 50.1257 27.2046 51.0068C28.7793 50.1257 32.7536 47.8011 32.4724 45.1392C30.9164 42.5897 31.9475 40.8837 32.5099 40.2276L30.9914 38.7092C28.5919 39.834 25.7987 39.834 23.4179 38.7092L21.8994 40.2276C22.4618 40.8837 23.4741 42.5897 21.9369 45.1392Z" fill="#483C32"/>
<path fill-rule="evenodd" clip-rule="evenodd" d="M25.7609 47.5573C25.6672 47.5573 25.5735 47.5198 25.4985 47.4448L23.6988 45.6452C23.3427 45.3078 23.8676 44.7641 24.2237 45.1203L25.7609 46.6575L30.1663 42.2521C30.5225 41.9147 31.0474 42.4396 30.71 42.7957L26.0421 47.4448C25.9671 47.5198 25.8734 47.5573 25.7609 47.5573Z" fill="#483C32"/>
</g>
<defs>
<clipPath id="clip0_7_10631">
<rect width="32" height="32" fill="white" transform="translate(21 20)"/>
</clipPath>
</defs>
</svg>
